<?xml version="1.0" encoding="UTF-8" standalone="no"?>
<!-- Created with Inkscape (http://www.inkscape.org/) -->

<svg
   xmlns:dc="http://purl.org/dc/elements/1.1/"
   xmlns:cc="http://creativecommons.org/ns#"
   xmlns:rdf="http://www.w3.org/1999/02/22-rdf-syntax-ns#"
   xmlns:svg="http://www.w3.org/2000/svg"
   xmlns="http://www.w3.org/2000/svg"
   xmlns:sodipodi="http://sodipodi.sourceforge.net/DTD/sodipodi-0.dtd"
   xmlns:inkscape="http://www.inkscape.org/namespaces/inkscape"
   width="744.09448819"
   height="1052.3622047"
   id="svg2"
   inkscape:label="Pozadí"
   version="1.1"
   inkscape:version="0.48.4 r9939"
   sodipodi:docname="kresba-1.wmf">
  <defs
     id="defs3851" />
  <sodipodi:namedview
     id="base"
     pagecolor="#ffffff"
     bordercolor="#666666"
     borderopacity="1.0"
     inkscape:pageopacity="0.0"
     inkscape:pageshadow="2"
     inkscape:zoom="3.959798"
     inkscape:cx="221.73027"
     inkscape:cy="948.11443"
     inkscape:document-units="px"
     inkscape:current-layer="g3893"
     showgrid="false"
     inkscape:window-width="1376"
     inkscape:window-height="878"
     inkscape:window-x="56"
     inkscape:window-y="142"
     inkscape:window-maximized="1" />
  <metadata
     id="metadata3854">
    <rdf:RDF>
      <cc:Work
         rdf:about="">
        <dc:format>image/svg+xml</dc:format>
        <dc:type
           rdf:resource="http://purl.org/dc/dcmitype/StillImage" />
        <dc:title></dc:title>
      </cc:Work>
    </rdf:RDF>
  </metadata>
  <g
     inkscape:label="Vrstva 1"
     inkscape:groupmode="layer"
     id="layer1">
    <g
       id="g3861"
       transform="translate(103.46092,88.393336)">
      <g
         id="g3893"
         transform="translate(-22.857141,11.690059)">
        <path
           id="path3895"
           d="m 5.5984251,9.1062989 370.4527449,0 0,388.4881811 -370.4527449,0 z"
           style="fill:#ffffff;fill-opacity:1;fill-rule:evenodd;stroke:#000000;stroke-width:1.16929126px;stroke-linecap:butt;stroke-linejoin:miter;stroke-miterlimit:4;stroke-opacity:1;stroke-dasharray:none"
           inkscape:connector-curvature="0" />
        <path
           id="path3899"
           d="m 12.295275,4.9960628 96.307085,0 0,6.9448822 -96.307085,0 z"
           style="fill:#ffffff;fill-opacity:1;fill-rule:nonzero;stroke:none"
           inkscape:connector-curvature="0" />
        <text
           id="text3897"
           style="font-size:11px;font-style:normal;font-weight:normal;text-align:start;text-anchor:start;fill:#000000;font-family:Sans"
           y="11.976378"
           x="21.36614"
           xml:space="preserve">Author is_a PN</text>
        <path
           id="path3901"
           d="m 95.740155,101.76378 c 0,11.12598 -9.106299,20.12598 -20.19685,20.12598 -11.232283,0 -20.232283,-9 -20.232283,-20.12598 0,-11.196854 9,-20.196853 20.232283,-20.196853 11.090551,0 20.19685,8.999999 20.19685,20.196853 z"
           style="fill:#ffffff;fill-opacity:1;fill-rule:nonzero;stroke:#000000;stroke-width:1.98425198px;stroke-linecap:butt;stroke-linejoin:miter;stroke-miterlimit:4;stroke-opacity:1;stroke-dasharray:none"
           inkscape:connector-curvature="0" />
        <path
           id="path3903"
           d="m 217.24015,99.106296 c 0,11.125984 -9.1063,20.125984 -20.19685,20.125984 -11.23228,0 -20.23228,-9 -20.23228,-20.125984 0,-11.19685 9,-20.196849 20.23228,-20.196849 11.09055,0 20.19685,8.999999 20.19685,20.196849 z"
           style="fill:#ffffff;fill-opacity:1;fill-rule:nonzero;stroke:#000000;stroke-width:1.98425198px;stroke-linecap:butt;stroke-linejoin:miter;stroke-miterlimit:4;stroke-opacity:1;stroke-dasharray:none"
           inkscape:connector-curvature="0" />
        <path
           id="path3905"
           d="m 342.14172,126.53149 c 0,11.09055 -9.10629,20.12599 -20.23228,20.12599 -11.19685,0 -20.19685,-9.03544 -20.19685,-20.12599 0,-11.19685 9,-20.23228 20.19685,-20.23228 11.12599,0 20.23228,9.03543 20.23228,20.23228 z"
           style="fill:#ffffff;fill-opacity:1;fill-rule:nonzero;stroke:#000000;stroke-width:1.98425198px;stroke-linecap:butt;stroke-linejoin:miter;stroke-miterlimit:4;stroke-opacity:1;stroke-dasharray:none"
           inkscape:connector-curvature="0" />
        <path
           id="path3907"
           d="m 179.18504,239.24409 c 0,11.09055 -9.1063,20.09055 -20.23229,20.09055 -11.19685,0 -20.19685,-9 -20.19685,-20.09055 0,-11.23229 9,-20.23229 20.19685,-20.23229 11.12599,0 20.23229,9 20.23229,20.23229 z"
           style="fill:#ffffff;fill-opacity:1;fill-rule:nonzero;stroke:#000000;stroke-width:1.98425198px;stroke-linecap:butt;stroke-linejoin:miter;stroke-miterlimit:4;stroke-opacity:1;stroke-dasharray:none"
           inkscape:connector-curvature="0" />
      </g>
    </g>
  </g>
</svg>
