<?xml version="1.0" encoding="UTF-8" standalone="no"?>
<!-- Created with Inkscape (http://www.inkscape.org/) -->

<svg
   xmlns:dc="http://purl.org/dc/elements/1.1/"
   xmlns:cc="http://creativecommons.org/ns#"
   xmlns:rdf="http://www.w3.org/1999/02/22-rdf-syntax-ns#"
   xmlns:svg="http://www.w3.org/2000/svg"
   xmlns="http://www.w3.org/2000/svg"
   xmlns:sodipodi="http://sodipodi.sourceforge.net/DTD/sodipodi-0.dtd"
   xmlns:inkscape="http://www.inkscape.org/namespaces/inkscape"
   width="555.43304"
   height="172.02635"
   id="svg3763"
   version="1.1"
   inkscape:version="0.48.4 r9939"
   sodipodi:docname="PN_jednoducha.svg">
  <defs
     id="defs3">
    <marker
       inkscape:stockid="Arrow2Lend"
       orient="auto"
       refY="0"
       refX="0"
       id="Arrow2Lend"
       style="overflow:visible">
      <path
         id="path4484"
         style="fill-rule:evenodd;stroke-width:0.625;stroke-linejoin:round"
         d="M 8.7185878,4.0337352 -2.2072895,0.01601326 8.7185884,-4.0017078 c -1.7454984,2.3720609 -1.7354408,5.6174519 -6e-7,8.035443 z"
         transform="matrix(-1.1,0,0,-1.1,-1.1,0)"
         inkscape:connector-curvature="0" />
    </marker>
    <marker
       inkscape:stockid="Arrow1Lend"
       orient="auto"
       refY="0"
       refX="0"
       id="Arrow1Lend"
       style="overflow:visible">
      <path
         id="path4466"
         d="M 0,0 5,-5 -12.5,0 5,5 0,0 z"
         style="fill-rule:evenodd;stroke:#000000;stroke-width:1pt"
         transform="matrix(-0.8,0,0,-0.8,-10,0)"
         inkscape:connector-curvature="0" />
    </marker>
    <marker
       inkscape:stockid="Arrow1Mend"
       orient="auto"
       refY="0"
       refX="0"
       id="Arrow1Mend"
       style="overflow:visible">
      <path
         id="path4472"
         d="M 0,0 5,-5 -12.5,0 5,5 0,0 z"
         style="fill-rule:evenodd;stroke:#000000;stroke-width:1pt"
         transform="matrix(-0.4,0,0,-0.4,-4,0)"
         inkscape:connector-curvature="0" />
    </marker>
    <marker
       inkscape:stockid="Arrow2Lend"
       orient="auto"
       refY="0"
       refX="0"
       id="Arrow2Lend-8"
       style="overflow:visible">
      <path
         inkscape:connector-curvature="0"
         id="path4484-5"
         style="fill-rule:evenodd;stroke-width:0.625;stroke-linejoin:round"
         d="M 8.7185878,4.0337352 -2.2072895,0.01601326 8.7185884,-4.0017078 c -1.7454984,2.3720609 -1.7354408,5.6174519 -6e-7,8.035443 z"
         transform="matrix(-1.1,0,0,-1.1,-1.1,0)" />
    </marker>
  </defs>
  <sodipodi:namedview
     inkscape:document-units="mm"
     id="base"
     pagecolor="#ffffff"
     bordercolor="#666666"
     borderopacity="1.0"
     inkscape:pageopacity="0.0"
     inkscape:pageshadow="2"
     inkscape:zoom="1.4142136"
     inkscape:cx="275.05541"
     inkscape:cy="226.44198"
     inkscape:current-layer="g3768"
     showgrid="true"
     units="mm"
     inkscape:window-width="1680"
     inkscape:window-height="1028"
     inkscape:window-x="1432"
     inkscape:window-y="-8"
     inkscape:window-maximized="1"
     inkscape:snap-bbox="true"
     inkscape:bbox-paths="true"
     inkscape:snap-bbox-midpoints="true"
     fit-margin-top="3"
     fit-margin-left="5"
     fit-margin-right="5"
     fit-margin-bottom="3">
    <inkscape:grid
       type="xygrid"
       id="grid3769"
       empspacing="5"
       visible="true"
       enabled="true"
       snapvisiblegridlinesonly="true"
       dotted="false"
       spacingx="1px"
       spacingy="1px"
       originx="-2.2834623px"
       originy="-868.60358px" />
  </sodipodi:namedview>
  <metadata
     id="metadata4">
    <rdf:RDF>
      <cc:Work
         rdf:about="">
        <dc:format>image/svg+xml</dc:format>
        <dc:type
           rdf:resource="http://purl.org/dc/dcmitype/StillImage" />
        <dc:title></dc:title>
      </cc:Work>
    </rdf:RDF>
  </metadata>
  <g
     inkscape:label="Layer 1"
     inkscape:groupmode="layer"
     id="layer1"
     transform="translate(-2.2834623,-11.732273)">
    <g
       transform="translate(456.77197,640.12885)"
       id="layer1-4"
       inkscape:label="Vrstva 1"
       style="display:inline">
      <g
         id="g3758" />
      <g
         id="g3768">
        <rect
           y="-567.28278"
           x="-346.28809"
           height="29.032227"
           width="29.032257"
           id="rect3780"
           style="fill:#ffffff;fill-opacity:1;stroke:#000000;stroke-width:0.96774143;stroke-miterlimit:4;stroke-opacity:1;stroke-dasharray:none;stroke-dashoffset:0" />
        <path
           transform="matrix(0.96774192,0,0,0.96774288,-460.96552,-656.96827)"
           d="m 55.5,56.008301 c 0,8.284271 -6.715729,15 -15,15 -8.284271,0 -15,-6.715729 -15,-15 0,-8.284271 6.715729,-15 15,-15 8.284271,0 15,6.715729 15,15 z"
           sodipodi:ry="15"
           sodipodi:rx="15"
           sodipodi:cy="56.008301"
           sodipodi:cx="40.5"
           id="path3776"
           style="fill:#ffffff;fill-opacity:1;stroke:#000000;stroke-opacity:1"
           sodipodi:type="arc" />
        <path
           inkscape:transform-center-x="-4.9999958"
           transform="matrix(0.50000066,0,0,0.4999994,-457.02202,-680.77069)"
           d="m 65.5,156.0083 c 0,2.76142 -2.238576,5 -5,5 -2.761424,0 -5,-2.23858 -5,-5 0,-2.76142 2.238576,-5 5,-5 2.761424,0 5,2.23858 5,5 z"
           sodipodi:ry="5"
           sodipodi:rx="5"
           sodipodi:cy="156.0083"
           sodipodi:cx="60.5"
           id="path3786"
           style="fill:#000000;fill-opacity:1;stroke:none"
           sodipodi:type="arc" />
        <path
           sodipodi:type="arc"
           style="fill:#000000;fill-opacity:1;stroke:none"
           id="path4453"
           sodipodi:cx="60.5"
           sodipodi:cy="156.0083"
           sodipodi:rx="5"
           sodipodi:ry="5"
           d="m 65.5,156.0083 c 0,2.76142 -2.238576,5 -5,5 -2.761424,0 -5,-2.23858 -5,-5 0,-2.76142 2.238576,-5 5,-5 2.761424,0 5,2.23858 5,5 z"
           transform="matrix(0.50000066,0,0,0.4999994,-447.02202,-680.77069)"
           inkscape:transform-center-x="-4.9999958" />
        <path
           inkscape:connector-curvature="0"
           id="path4457"
           d="m -408.26989,-597.26456 61.47927,34.49764"
           style="fill:none;stroke:#000000;stroke-width:1.0041703;stroke-linecap:butt;stroke-linejoin:miter;stroke-miterlimit:4;stroke-opacity:1;stroke-dasharray:none;marker-end:url(#Arrow2Lend)" />
        <path
           transform="matrix(0.96774192,0,0,0.96774288,29.034476,-576.96829)"
           d="m 55.5,56.008301 c 0,8.284271 -6.715729,15 -15,15 -8.284271,0 -15,-6.715729 -15,-15 0,-8.284271 6.715729,-15 15,-15 8.284271,0 15,6.715729 15,15 z"
           sodipodi:ry="15"
           sodipodi:rx="15"
           sodipodi:cy="56.008301"
           sodipodi:cx="40.5"
           id="path3776-61"
           style="fill:#ffffff;fill-opacity:1;stroke:#000000;stroke-opacity:1"
           sodipodi:type="arc" />
        <path
           inkscape:transform-center-x="-3.3281218"
           transform="matrix(0.50000066,0,0,0.4999994,32.977973,-600.77071)"
           d="m 65.5,156.0083 c 0,2.76142 -2.238576,5 -5,5 -2.761424,0 -5,-2.23858 -5,-5 0,-2.76142 2.238576,-5 5,-5 2.761424,0 5,2.23858 5,5 z"
           sodipodi:ry="5"
           sodipodi:rx="5"
           sodipodi:cy="156.0083"
           sodipodi:cx="60.5"
           id="path3786-8"
           style="fill:#000000;fill-opacity:1;stroke:none"
           sodipodi:type="arc" />
        <path
           sodipodi:type="arc"
           style="fill:#000000;fill-opacity:1;stroke:none"
           id="path4453-9"
           sodipodi:cx="60.5"
           sodipodi:cy="156.0083"
           sodipodi:rx="5"
           sodipodi:ry="5"
           d="m 65.5,156.0083 c 0,2.76142 -2.238576,5 -5,5 -2.761424,0 -5,-2.23858 -5,-5 0,-2.76142 2.238576,-5 5,-5 2.761424,0 5,2.23858 5,5 z"
           transform="matrix(0.50000066,0,0,0.4999994,42.977973,-600.77071)"
           inkscape:transform-center-x="-3.3281217" />
        <path
           transform="matrix(0.96774192,0,0,0.96774288,-460.96552,-606.9683)"
           d="m 55.5,56.008301 c 0,8.284271 -6.715729,15 -15,15 -8.284271,0 -15,-6.715729 -15,-15 0,-8.284271 6.715729,-15 15,-15 8.284271,0 15,6.715729 15,15 z"
           sodipodi:ry="15"
           sodipodi:rx="15"
           sodipodi:cy="56.008301"
           sodipodi:cx="40.5"
           id="path3776-5"
           style="fill:#ffffff;fill-opacity:1;stroke:#000000;stroke-opacity:1"
           sodipodi:type="arc" />
        <path
           transform="matrix(0.50000066,0,0,0.4999994,-452.02201,-630.77072)"
           d="m 65.5,156.0083 c 0,2.76142 -2.238576,5 -5,5 -2.761424,0 -5,-2.23858 -5,-5 0,-2.76142 2.238576,-5 5,-5 2.761424,0 5,2.23858 5,5 z"
           sodipodi:ry="5"
           sodipodi:rx="5"
           sodipodi:cy="156.0083"
           sodipodi:cx="60.5"
           id="path3786-2"
           style="fill:#000000;fill-opacity:1;stroke:none"
           sodipodi:type="arc" />
        <path
           transform="matrix(0.96774192,0,0,0.96774288,-460.96552,-556.96827)"
           d="m 55.5,56.008301 c 0,8.284271 -6.715729,15 -15,15 -8.284271,0 -15,-6.715729 -15,-15 0,-8.284271 6.715729,-15 15,-15 8.284271,0 15,6.715729 15,15 z"
           sodipodi:ry="15"
           sodipodi:rx="15"
           sodipodi:cy="56.008301"
           sodipodi:cx="40.5"
           id="path3776-6"
           style="fill:#ffffff;fill-opacity:1;stroke:#000000;stroke-opacity:1"
           sodipodi:type="arc" />
        <path
           transform="matrix(0.50000066,0,0,0.4999994,-452.02201,-580.77069)"
           d="m 65.5,156.0083 c 0,2.76142 -2.238576,5 -5,5 -2.761424,0 -5,-2.23858 -5,-5 0,-2.76142 2.238576,-5 5,-5 2.761424,0 5,2.23858 5,5 z"
           sodipodi:ry="5"
           sodipodi:rx="5"
           sodipodi:cy="156.0083"
           sodipodi:cx="60.5"
           id="path3786-1"
           style="fill:#000000;fill-opacity:1;stroke:none"
           sodipodi:type="arc" />
        <path
           transform="matrix(0.96774192,0,0,0.96774288,-280.96552,-636.96827)"
           d="m 55.5,56.008301 c 0,8.284271 -6.715729,15 -15,15 -8.284271,0 -15,-6.715729 -15,-15 0,-8.284271 6.715729,-15 15,-15 8.284271,0 15,6.715729 15,15 z"
           sodipodi:ry="15"
           sodipodi:rx="15"
           sodipodi:cy="56.008301"
           sodipodi:cx="40.5"
           id="path3776-2"
           style="fill:#ffffff;fill-opacity:1;stroke:#000000;stroke-opacity:1"
           sodipodi:type="arc" />
        <path
           transform="matrix(0.96774192,0,0,0.96774288,-280.96552,-576.9683)"
           d="m 55.5,56.008301 c 0,8.284271 -6.715729,15 -15,15 -8.284271,0 -15,-6.715729 -15,-15 0,-8.284271 6.715729,-15 15,-15 8.284271,0 15,6.715729 15,15 z"
           sodipodi:ry="15"
           sodipodi:rx="15"
           sodipodi:cy="56.008301"
           sodipodi:cx="40.5"
           id="path3776-21"
           style="fill:#ffffff;fill-opacity:1;stroke:#000000;stroke-opacity:1"
           sodipodi:type="arc" />
        <text
           sodipodi:linespacing="125%"
           id="text6311"
           y="-524.86017"
           x="-297.09439"
           style="font-size:11px;font-style:normal;font-weight:normal;line-height:125%;letter-spacing:0px;word-spacing:0px;fill:#000000;fill-opacity:1;stroke:none;font-family:Sans"
           xml:space="preserve"><tspan
             y="-524.86017"
             x="-297.09439"
             id="tspan6313"
             sodipodi:role="line">2</tspan></text>
        <text
           sodipodi:linespacing="125%"
           id="text6311-2"
           y="-524.86017"
           x="12.905771"
           style="font-size:11px;font-style:normal;font-weight:normal;line-height:125%;letter-spacing:0px;word-spacing:0px;fill:#000000;fill-opacity:1;stroke:none;font-family:Sans"
           xml:space="preserve"><tspan
             y="-524.86017"
             x="12.905771"
             id="tspan6313-7"
             sodipodi:role="line">2</tspan></text>
        <text
           sodipodi:linespacing="125%"
           id="text6336"
           y="-469.73599"
           x="-340.21793"
           style="font-size:13px;font-style:normal;font-weight:normal;line-height:125%;letter-spacing:0px;word-spacing:0px;fill:#000000;fill-opacity:1;stroke:none;font-family:Sans"
           xml:space="preserve"><tspan
             y="-469.73599"
             x="-340.21793"
             id="tspan6338"
             sodipodi:role="line">(a)</tspan></text>
        <text
           sodipodi:linespacing="125%"
           id="text6336-9"
           y="-469.73602"
           x="-30.217737"
           style="font-size:13px;font-style:normal;font-weight:normal;line-height:125%;letter-spacing:0px;word-spacing:0px;fill:#000000;fill-opacity:1;stroke:none;font-family:Sans"
           xml:space="preserve"><tspan
             y="-469.73602"
             x="-30.217737"
             id="tspan6338-5"
             sodipodi:role="line">(b)</tspan></text>
        <path
           style="fill:none;stroke:#000000;stroke-width:1px;stroke-linecap:butt;stroke-linejoin:miter;stroke-opacity:1;marker-end:url(#Arrow2Lend-8)"
           d="m -406.77197,-552.76665 60,0"
           id="path5483"
           inkscape:connector-curvature="0" />
        <path
           style="fill:none;stroke:#000000;stroke-width:1.01381814px;stroke-linecap:butt;stroke-linejoin:miter;stroke-opacity:1;marker-end:url(#Arrow2Lend-8)"
           d="m -407.61679,-507.27356 60.82909,-35.48363"
           id="path5485"
           inkscape:connector-curvature="0" />
        <path
           style="fill:none;stroke:#000000;stroke-width:1px;stroke-linecap:butt;stroke-linejoin:miter;stroke-opacity:1;marker-end:url(#Arrow2Lend-8)"
           d="m -316.77197,-562.76665 60,-15"
           id="path5487"
           inkscape:connector-curvature="0" />
        <path
           style="fill:none;stroke:#000000;stroke-width:1px;stroke-linecap:butt;stroke-linejoin:miter;stroke-opacity:1;marker-end:url(#Arrow2Lend-8)"
           d="m -316.77197,-542.76665 60,15"
           id="path5489"
           inkscape:connector-curvature="0" />
        <rect
           style="fill:#ffffff;fill-opacity:1;stroke:#000000;stroke-width:0.96774143;stroke-miterlimit:4;stroke-opacity:1;stroke-dasharray:none;stroke-dashoffset:0"
           id="rect6243"
           width="29.032257"
           height="29.032227"
           x="-36.288082"
           y="-567.28278" />
        <g
           id="g6245"
           transform="matrix(1.5023474,0,0,1.5023489,-514.3776,132.86358)">
          <path
             transform="matrix(0.64415322,0,0,0.64415322,241.89617,-525.73131)"
             d="m 55.5,56.008301 c 0,8.284271 -6.715729,15 -15,15 -8.284271,0 -15,-6.715729 -15,-15 0,-8.284271 6.715729,-15 15,-15 8.284271,0 15,6.715729 15,15 z"
             sodipodi:ry="15"
             sodipodi:rx="15"
             sodipodi:cy="56.008301"
             sodipodi:cx="40.5"
             id="path6247"
             style="fill:#ffffff;fill-opacity:1;stroke:#000000;stroke-opacity:1"
             sodipodi:type="arc" />
          <path
             inkscape:transform-center-x="-4.9999958"
             transform="matrix(0.33281294,0,0,0.33281177,247.84919,-541.57479)"
             d="m 65.5,156.0083 c 0,2.76142 -2.238576,5 -5,5 -2.761424,0 -5,-2.23858 -5,-5 0,-2.76142 2.238576,-5 5,-5 2.761424,0 5,2.23858 5,5 z"
             sodipodi:ry="5"
             sodipodi:rx="5"
             sodipodi:cy="156.0083"
             sodipodi:cx="60.5"
             id="path6249"
             style="fill:#000000;fill-opacity:1;stroke:none"
             sodipodi:type="arc" />
          <path
             inkscape:connector-curvature="0"
             id="path6253"
             d="m 276.9717,-485.99107 40.92214,22.96247"
             style="fill:none;stroke:#000000;stroke-width:0.66840053;stroke-linecap:butt;stroke-linejoin:miter;stroke-miterlimit:4;stroke-opacity:1;stroke-dasharray:none;marker-end:url(#Arrow2Lend)" />
        </g>
        <g
           id="g6255"
           transform="matrix(1.5023474,0,0,1.5023489,-514.3776,182.86355)">
          <path
             transform="matrix(0.64415322,0,0,0.64415322,241.89617,-525.73131)"
             d="m 55.5,56.008301 c 0,8.284271 -6.715729,15 -15,15 -8.284271,0 -15,-6.715729 -15,-15 0,-8.284271 6.715729,-15 15,-15 8.284271,0 15,6.715729 15,15 z"
             sodipodi:ry="15"
             sodipodi:rx="15"
             sodipodi:cy="56.008301"
             sodipodi:cx="40.5"
             id="path6257"
             style="fill:#ffffff;fill-opacity:1;stroke:#000000;stroke-opacity:1"
             sodipodi:type="arc" />
        </g>
        <g
           id="g6261"
           transform="matrix(1.5023474,0,0,1.5023489,-514.3776,232.86358)">
          <path
             transform="matrix(0.64415322,0,0,0.64415322,241.89617,-525.73131)"
             d="m 55.5,56.008301 c 0,8.284271 -6.715729,15 -15,15 -8.284271,0 -15,-6.715729 -15,-15 0,-8.284271 6.715729,-15 15,-15 8.284271,0 15,6.715729 15,15 z"
             sodipodi:ry="15"
             sodipodi:rx="15"
             sodipodi:cy="56.008301"
             sodipodi:cx="40.5"
             id="path6263"
             style="fill:#ffffff;fill-opacity:1;stroke:#000000;stroke-opacity:1"
             sodipodi:type="arc" />
        </g>
        <g
           id="g6267"
           transform="matrix(1.5023474,0,0,1.5023489,-334.3776,152.86358)">
          <path
             transform="matrix(0.64415322,0,0,0.64415322,241.89617,-525.73131)"
             d="m 55.5,56.008301 c 0,8.284271 -6.715729,15 -15,15 -8.284271,0 -15,-6.715729 -15,-15 0,-8.284271 6.715729,-15 15,-15 8.284271,0 15,6.715729 15,15 z"
             sodipodi:ry="15"
             sodipodi:rx="15"
             sodipodi:cy="56.008301"
             sodipodi:cx="40.5"
             id="path6269"
             style="fill:#ffffff;fill-opacity:1;stroke:#000000;stroke-opacity:1"
             sodipodi:type="arc" />
          <path
             transform="matrix(0.33281294,0,0,0.33281177,247.84919,-541.57478)"
             d="m 65.5,156.0083 c 0,2.76142 -2.238576,5 -5,5 -2.761424,0 -5,-2.23858 -5,-5 0,-2.76142 2.238576,-5 5,-5 2.761424,0 5,2.23858 5,5 z"
             sodipodi:ry="5"
             sodipodi:rx="5"
             sodipodi:cy="156.0083"
             sodipodi:cx="60.5"
             id="path6271"
             style="fill:#000000;fill-opacity:1;stroke:none"
             sodipodi:type="arc" />
        </g>
        <path
           inkscape:connector-curvature="0"
           id="path6279"
           d="m -96.771968,-552.76666 60,0"
           style="fill:none;stroke:#000000;stroke-width:1px;stroke-linecap:butt;stroke-linejoin:miter;stroke-opacity:1;marker-end:url(#Arrow2Lend-8)" />
        <path
           inkscape:connector-curvature="0"
           id="path6281"
           d="m -97.616788,-507.27357 60.82909,-35.48363"
           style="fill:none;stroke:#000000;stroke-width:1.01381814px;stroke-linecap:butt;stroke-linejoin:miter;stroke-opacity:1;marker-end:url(#Arrow2Lend-8)" />
        <path
           inkscape:connector-curvature="0"
           id="path6283"
           d="m -6.7719679,-562.76666 59.9999999,-15"
           style="fill:none;stroke:#000000;stroke-width:1px;stroke-linecap:butt;stroke-linejoin:miter;stroke-opacity:1;marker-end:url(#Arrow2Lend-8)" />
        <path
           inkscape:connector-curvature="0"
           id="path6285"
           d="m -6.7719679,-542.76666 59.9999999,15"
           style="fill:none;stroke:#000000;stroke-width:1px;stroke-linecap:butt;stroke-linejoin:miter;stroke-opacity:1;marker-end:url(#Arrow2Lend-8)" />
      </g>
    </g>
  </g>
</svg>
